<?xml version="1.0" encoding="utf-8"?>
<!-- Generator: Adobe Illustrator 15.1.0, SVG Export Plug-In . SVG Version: 6.00 Build 0)  -->
<!DOCTYPE svg PUBLIC "-//W3C//DTD SVG 1.1//EN" "http://www.w3.org/Graphics/SVG/1.1/DTD/svg11.dtd">
<svg version="1.1" id="Layer_1" xmlns="http://www.w3.org/2000/svg" xmlns:xlink="http://www.w3.org/1999/xlink" x="0px" y="0px"
	 width="48px" height="48px" viewBox="0 0 48 48" enable-background="new 0 0 48 48" xml:space="preserve">
<g>
	<path fill-rule="evenodd" clip-rule="evenodd" fill="#FFFFFF" d="M15.018,17.712c0-1.77-0.832-3.377-2.126-4.185
		c0.24-0.353,0.382-0.778,0.382-1.237c0-1.212-0.987-2.198-2.199-2.198c-1.212,0-2.2,0.986-2.2,2.198
		c0,0.459,0.142,0.885,0.383,1.237c-1.296,0.807-2.127,2.415-2.126,4.207l0.007,0.191l-0.008,0.048v0.047
		c0,1.498,3.284,1.574,3.943,1.574c0.658,0,3.944-0.076,3.944-1.574v-0.055l-0.009-0.046L15.018,17.712z"/>
	<path fill="#333333" d="M14.391,17.712c0-1.684-0.82-3.13-1.994-3.761c-0.363,0.291-0.822,0.465-1.322,0.465
		c-0.499,0-0.959-0.174-1.321-0.465c-1.175,0.631-1.994,2.077-1.994,3.761l0.009,0.251l-0.009,0.058
		c0,0.523,1.483,0.947,3.315,0.947c1.83,0,3.316-0.424,3.316-0.947l-0.01-0.057L14.391,17.712z"/>
	<circle fill-rule="evenodd" clip-rule="evenodd" fill="#333333" cx="11.074" cy="12.29" r="1.572"/>
</g>
<g>
	<path fill-rule="evenodd" clip-rule="evenodd" fill="#FFFFFF" d="M20.076,16.89c0-1.771-0.832-3.378-2.127-4.187
		c0.24-0.352,0.381-0.779,0.381-1.237c0-1.211-0.986-2.196-2.198-2.196s-2.2,0.985-2.2,2.196c0,0.458,0.142,0.886,0.382,1.237
		c-1.295,0.809-2.126,2.416-2.126,4.208l0.008,0.19l-0.008,0.049v0.047c0,1.499,3.284,1.574,3.942,1.574
		c0.659,0,3.945-0.075,3.945-1.574v-0.055l-0.009-0.046L20.076,16.89z"/>
	<path fill="#333333" d="M19.448,16.89c0-1.685-0.821-3.13-1.994-3.762c-0.362,0.291-0.822,0.465-1.322,0.465
		c-0.499,0-0.959-0.174-1.323-0.465c-1.173,0.632-1.992,2.077-1.992,3.762l0.009,0.25l-0.009,0.058c0,0.523,1.483,0.947,3.314,0.947
		s3.317-0.424,3.317-0.947l-0.01-0.057L19.448,16.89z"/>
	<circle fill-rule="evenodd" clip-rule="evenodd" fill="#333333" cx="16.131" cy="11.466" r="1.572"/>
</g>
<g>
	<path fill-rule="evenodd" clip-rule="evenodd" fill="#FFFFFF" d="M17.134,22.575c0-1.77-0.832-3.379-2.127-4.186
		c0.24-0.354,0.382-0.778,0.382-1.236c0-1.213-0.987-2.198-2.2-2.198c-1.213,0-2.199,0.985-2.199,2.198
		c0,0.458,0.142,0.883,0.383,1.236c-1.295,0.807-2.126,2.417-2.125,4.209l0.006,0.19l-0.007,0.047v0.047
		c0,1.499,3.284,1.575,3.943,1.575c0.658,0,3.944-0.076,3.944-1.575v-0.055l-0.009-0.045L17.134,22.575z"/>
	<path fill="#333333" d="M16.506,22.575c0-1.685-0.82-3.131-1.994-3.762c-0.363,0.29-0.822,0.464-1.322,0.464
		s-0.958-0.174-1.322-0.464c-1.174,0.631-1.993,2.077-1.993,3.762l0.009,0.25l-0.009,0.058c0,0.523,1.483,0.947,3.315,0.947
		c1.83,0,3.316-0.424,3.316-0.947l-0.01-0.057L16.506,22.575z"/>
	<circle fill-rule="evenodd" clip-rule="evenodd" fill="#333333" cx="13.19" cy="17.153" r="1.572"/>
</g>
<g transform="translate(144 144)">
	<path fill="#333333" d="M-108.182-108.633h-0.793c-0.103-0.397-0.262-0.78-0.466-1.126l0.561-0.562c0.17-0.17,0.17-0.447,0-0.617
		l-0.923-0.925c-0.172-0.17-0.447-0.17-0.617,0l-0.562,0.562c-0.346-0.205-0.728-0.364-1.125-0.468v-0.79
		c0-0.24-0.189-0.436-0.432-0.436h-1.307c-0.24,0-0.43,0.195-0.43,0.436v0.79c-0.397,0.104-0.778,0.263-1.124,0.468l-0.563-0.562
		c-0.17-0.17-0.447-0.17-0.617,0l-0.924,0.925c-0.171,0.17-0.171,0.445,0,0.615l0.561,0.563c-0.204,0.346-0.363,0.729-0.467,1.126
		h-0.791c-0.24,0-0.436,0.188-0.436,0.429v1.31c0,0.24,0.195,0.43,0.436,0.43h0.791c0.104,0.396,0.263,0.778,0.467,1.126
		l-0.561,0.561c-0.171,0.169-0.171,0.448,0,0.618l0.924,0.923c0.17,0.17,0.445,0.17,0.615,0l0.563-0.56
		c0.348,0.203,0.729,0.362,1.126,0.467v0.79c0,0.242,0.189,0.436,0.43,0.436h1.307c0.24,0,0.432-0.193,0.432-0.436v-0.79
		c0.396-0.104,0.777-0.264,1.123-0.467l0.563,0.56c0.17,0.17,0.446,0.17,0.616,0l0.925-0.923c0.17-0.17,0.17-0.446,0-0.616
		l-0.562-0.562c0.205-0.348,0.364-0.729,0.467-1.124h0.791c0.242,0,0.437-0.191,0.437-0.432v-1.308c0-0.242-0.194-0.431-0.437-0.431
		H-108.182z M-113.192-105.372c-1.203,0-2.178-0.975-2.178-2.177c0-1.203,0.975-2.179,2.178-2.179c1.204,0,2.179,0.976,2.179,2.179
		C-111.014-106.347-111.988-105.372-113.192-105.372z"/>
	<path fill="#333333" d="M-102.932-113.896l-0.428,0.177c-0.146-0.192-0.316-0.362-0.506-0.504l0.178-0.431
		c0.053-0.13-0.008-0.28-0.139-0.334l-0.707-0.293c-0.129-0.053-0.278,0.009-0.334,0.138l-0.178,0.431
		c-0.233-0.032-0.477-0.033-0.714-0.001l-0.177-0.429c-0.055-0.128-0.2-0.191-0.332-0.139l-0.705,0.293
		c-0.13,0.054-0.189,0.202-0.136,0.333l0.177,0.428c-0.19,0.145-0.362,0.315-0.504,0.505l-0.43-0.178
		c-0.129-0.055-0.279,0.009-0.332,0.139l-0.295,0.707c-0.053,0.13,0.008,0.279,0.139,0.333l0.43,0.179
		c-0.033,0.233-0.034,0.477,0,0.714l-0.428,0.177c-0.131,0.055-0.193,0.201-0.141,0.329l0.295,0.71
		c0.053,0.128,0.199,0.188,0.33,0.135l0.43-0.179c0.144,0.192,0.315,0.363,0.504,0.504l-0.178,0.431
		c-0.053,0.131,0.009,0.28,0.139,0.333l0.707,0.294c0.13,0.054,0.279-0.008,0.333-0.139l0.18-0.431
		c0.233,0.034,0.476,0.035,0.714,0.001l0.176,0.429c0.056,0.131,0.201,0.193,0.332,0.14l0.705-0.294
		c0.131-0.053,0.189-0.201,0.137-0.332l-0.178-0.429c0.191-0.144,0.361-0.314,0.504-0.505l0.43,0.179
		c0.13,0.054,0.281-0.009,0.334-0.137l0.292-0.71c0.056-0.128-0.007-0.277-0.137-0.331l-0.431-0.181
		c0.033-0.231,0.033-0.475,0.002-0.712l0.427-0.178c0.132-0.054,0.194-0.199,0.14-0.33l-0.293-0.707
		C-102.652-113.892-102.802-113.951-102.932-113.896L-102.932-113.896z M-104.912-111.011c-0.65,0.271-1.396-0.039-1.666-0.69
		c-0.27-0.65,0.039-1.396,0.689-1.666c0.651-0.27,1.396,0.04,1.668,0.69C-103.951-112.025-104.261-111.279-104.912-111.011z"/>
</g>
<path fill="#333333" d="M45.104,0H2.897C1.298,0,0,1.299,0,2.898v42.203C0,46.701,1.298,48,2.897,48h42.207
	C46.702,48,48,46.701,48,45.102V2.898C48,1.299,46.702,0,45.104,0z M37.859,1.932c1.066,0,1.932,0.866,1.932,1.931
	c0,1.067-0.865,1.933-1.932,1.933c-1.064,0-1.931-0.865-1.931-1.933C35.929,2.798,36.795,1.932,37.859,1.932z M32.549,1.932
	c1.065,0,1.932,0.866,1.932,1.931c0,1.067-0.866,1.933-1.932,1.933s-1.932-0.865-1.932-1.933
	C30.617,2.798,31.483,1.932,32.549,1.932z M45.104,45.102H2.897V7.728h42.207V45.102z M43.172,5.795
	c-1.066,0-1.932-0.865-1.932-1.933c0-1.064,0.865-1.931,1.932-1.931c1.064,0,1.932,0.866,1.932,1.931
	C45.104,4.93,44.236,5.795,43.172,5.795z"/>
<g>
	<path fill="#333333" d="M35.85,22.625c-0.008,2.239-1.83,4.048-4.07,4.037c-2.244-0.008-4.053-1.832-4.041-4.074
		c0.002-0.656,0.162-1.271,0.443-1.82l-3.037-3.064l-0.234-1.627l-1.626-0.247l-0.234-1.627l-1.622-0.248l0.007-1.866l1.866,0.008
		l6.778,6.837c0.528-0.246,1.115-0.388,1.734-0.385C34.053,18.558,35.861,20.383,35.85,22.625z M33.246,23.118
		c-0.545-0.003-0.991,0.438-0.993,0.983c-0.002,0.547,0.44,0.991,0.984,0.994c0.547,0.003,0.991-0.438,0.994-0.985
		C34.233,23.562,33.793,23.12,33.246,23.118z"/>
	<path fill="none" stroke="#FFFFFF" stroke-width="0.2774" stroke-miterlimit="10" d="M23.913,13.829l5.931,5.98
		c0,0-0.828,0.69-1.083,1.839"/>
</g>
<g>
	<path fill="#333333" d="M36.053,11.298c0.105-0.037,0.22,0.021,0.281,0.107c0.154,0.209,0.307,0.419,0.457,0.632
		c0.129,0.177,0.375,0.26,0.588,0.195c0.26-0.085,0.521-0.175,0.785-0.255c0.143-0.041,0.297,0.073,0.303,0.22
		c0.008,0.271,0.008,0.544,0.008,0.816c-0.008,0.215,0.139,0.422,0.34,0.499c0.266,0.087,0.535,0.17,0.803,0.265
		c0.139,0.049,0.197,0.232,0.115,0.356c-0.153,0.228-0.323,0.447-0.485,0.671c-0.118,0.168-0.12,0.407-0.016,0.581
		c0.163,0.23,0.336,0.455,0.497,0.686c0.082,0.122,0.035,0.307-0.104,0.362c-0.262,0.097-0.533,0.175-0.799,0.267
		c-0.188,0.063-0.33,0.243-0.35,0.44c-0.006,0.289-0.002,0.578-0.008,0.865c0.002,0.153-0.154,0.276-0.305,0.234
		c-0.263-0.076-0.523-0.169-0.785-0.25c-0.205-0.069-0.45,0.01-0.576,0.184c-0.166,0.221-0.324,0.449-0.49,0.666
		c-0.091,0.122-0.287,0.123-0.378,0.002c-0.167-0.219-0.326-0.446-0.492-0.667c-0.13-0.178-0.38-0.254-0.589-0.179
		c-0.251,0.079-0.5,0.165-0.754,0.239c-0.153,0.058-0.323-0.066-0.323-0.228c-0.002-0.266-0.002-0.531-0.002-0.797
		c0.005-0.221-0.146-0.437-0.354-0.509c-0.261-0.088-0.524-0.169-0.784-0.26c-0.145-0.046-0.206-0.231-0.123-0.356
		c0.154-0.229,0.324-0.449,0.484-0.674c0.126-0.174,0.124-0.429,0.004-0.604c-0.162-0.226-0.328-0.447-0.488-0.675
		c-0.08-0.124-0.023-0.308,0.118-0.357c0.261-0.094,0.524-0.176,0.788-0.258c0.186-0.065,0.325-0.243,0.351-0.437
		c0.011-0.297-0.003-0.593,0.009-0.887c0.008-0.148,0.163-0.257,0.305-0.216c0.266,0.081,0.526,0.17,0.787,0.253
		c0.217,0.067,0.469-0.023,0.591-0.21c0.139-0.196,0.282-0.387,0.422-0.58C35.924,11.382,35.979,11.318,36.053,11.298L36.053,11.298
		z"/>
	<path fill="#333333" d="M39.217,18.066c0.855,0.883,1.697,1.775,2.547,2.663c-0.725,0.005-1.451-0.001-2.175,0.003
		c-0.005,0.727,0,1.451-0.005,2.176c-0.989-1.06-1.979-2.118-2.968-3.182c0.196-0.155,0.333-0.368,0.476-0.571
		c0.168,0.038,0.326,0.11,0.494,0.147c0.326,0.074,0.681,0.023,0.97-0.145c0.39-0.223,0.63-0.65,0.661-1.094V18.066z"/>
</g>
<g>
	<path fill="#333333" d="M20.366,28.232c-3.235-3.235-8.498-3.235-11.73,0c-3.237,3.235-3.237,8.496,0,11.73
		c3.233,3.235,8.496,3.235,11.73,0C23.6,36.729,23.598,31.468,20.366,28.232z M19.728,39.327c-2.882,2.882-7.573,2.882-10.454,0
		c-2.884-2.885-2.884-7.574,0-10.458c2.881-2.883,7.572-2.883,10.454,0C22.608,31.753,22.61,36.443,19.728,39.327z"/>
	<g>
		<path fill="#333333" d="M9.576,32.718c-0.395-0.163-0.79-0.327-1.185-0.493L8.25,32.166l0.053-0.144
			c0.08-0.21,0.167-0.416,0.255-0.622l0.062-0.137l0.14,0.052c0.339,0.126,0.674,0.267,1.007,0.407
			c0.24,0.102,0.479,0.204,0.723,0.298l0.139,0.058l-0.047,0.141c-0.034,0.101-0.076,0.201-0.12,0.3
			c-0.047,0.105-0.094,0.212-0.125,0.321l-0.048,0.174L9.576,32.718z M18.675,32.844c-0.034-0.11-0.083-0.215-0.128-0.319
			c-0.045-0.099-0.086-0.201-0.122-0.305l-0.049-0.142l0.14-0.058c0.247-0.096,0.487-0.197,0.729-0.299
			c0.334-0.142,0.666-0.28,1.002-0.406l0.138-0.051l0.064,0.136c0.091,0.202,0.176,0.412,0.255,0.622l0.049,0.144l-0.139,0.059
			c-0.575,0.244-1.151,0.483-1.73,0.72l-0.161,0.064L18.675,32.844z M17.833,31.358c-0.135-0.148-0.281-0.288-0.424-0.429
			l-0.161-0.152l0.442-0.44c0.326-0.329,0.653-0.657,0.981-0.979l0.091-0.092l0.108,0.071c0.192,0.126,0.387,0.32,0.519,0.516
			l0.074,0.108l-0.091,0.093c-0.268,0.272-0.538,0.543-0.81,0.812l-0.615,0.616L17.833,31.358z M10.939,31.363
			c-0.251-0.254-0.503-0.507-0.754-0.759C10,30.423,9.548,29.967,9.548,29.967l0.065-0.106c0.124-0.197,0.309-0.356,0.476-0.499
			l0.114-0.098l0.135,0.084c0.189,0.203,0.386,0.396,0.583,0.59c0.248,0.242,0.493,0.488,0.727,0.741l0.117,0.128l-0.134,0.105
			c-0.116,0.093-0.219,0.201-0.324,0.31l-0.255,0.257L10.939,31.363z M16.503,30.302c-0.098-0.036-0.19-0.074-0.286-0.116
			c-0.11-0.046-0.221-0.094-0.337-0.132l-0.161-0.057l0.065-0.155c0.235-0.577,0.473-1.155,0.719-1.728l0.059-0.137l0.14,0.049
			c0.21,0.074,0.418,0.162,0.623,0.251l0.138,0.06l-0.051,0.145c-0.124,0.33-0.262,0.656-0.398,0.981
			c-0.104,0.248-0.208,0.498-0.308,0.749l-0.056,0.143L16.503,30.302z M12.303,30.21c-0.103-0.254-0.208-0.506-0.314-0.757
			c-0.134-0.323-0.269-0.646-0.393-0.972l-0.053-0.144l0.138-0.06c0.207-0.089,0.413-0.176,0.623-0.256l0.14-0.054l0.061,0.14
			c0.247,0.576,0.484,1.155,0.72,1.735l0.066,0.164l-0.168,0.05c-0.123,0.035-0.235,0.085-0.35,0.134
			c-0.09,0.039-0.179,0.079-0.27,0.112l-0.146,0.051L12.303,30.21z M14.005,29.688c0.005-0.374,0.004-0.745,0.002-1.117
			c0-0.251,0.002-0.889,0.002-0.889l0.137-0.019c0.114-0.016,0.232-0.022,0.35-0.022c0.122,0,0.244,0.008,0.366,0.022L15,27.679
			v2.174l-0.167-0.009c-0.101-0.006-0.202-0.008-0.303-0.008c-0.119,0-0.237,0.004-0.355,0.014l-0.173,0.013L14.005,29.688z"/>
		<path fill="#333333" d="M14.474,33.914c0.065,0,0.127,0.006,0.187,0.021l2.189-1.409l-1.481,2.296
			c-0.004,0.491-0.404,0.886-0.894,0.886c-0.497,0-0.898-0.401-0.898-0.896c0-0.494,0.401-0.895,0.898-0.895V33.914z"/>
		<rect x="11.319" y="37.451" fill="#333333" width="1.587" height="1.588"/>
		<rect x="13.648" y="37.451" fill="#333333" width="1.588" height="1.588"/>
		<rect x="15.975" y="37.451" fill="#333333" width="1.59" height="1.588"/>
	</g>
</g>
</svg>
